  <svg  width="152" height="23" viewBox="0 0 152 23" fill="none" xmlns="http://www.w3.org/2000/svg">
    <path d="M9.167 22.489H0.313C0.229987 22.489 0.150374 22.4561 0.0916756 22.3974C0.0329767 22.3387 0 22.259 0 22.176L0 8.39503C0 8.31202 0.0329767 8.2324 0.0916756 8.17371C0.150374 8.11501 0.229987 8.08203 0.313 8.08203H9.167C9.25001 8.08203 9.32963 8.11501 9.38832 8.17371C9.44702 8.2324 9.48 8.31202 9.48 8.39503V22.176C9.48 22.259 9.44702 22.3387 9.38832 22.3974C9.32963 22.4561 9.25001 22.489 9.167 22.489Z" fill="#ebff08"></path>
    <path d="M32.169 22.489H23.3149C23.2738 22.489 23.2331 22.4809 23.1952 22.4652C23.1572 22.4494 23.1227 22.4264 23.0936 22.3973C23.0646 22.3683 23.0415 22.3338 23.0258 22.2958C23.0101 22.2578 23.002 22.2171 23.002 22.176V0.313002C23.002 0.271898 23.0101 0.231197 23.0258 0.193222C23.0415 0.155247 23.0646 0.120742 23.0936 0.0916772C23.1227 0.0626124 23.1572 0.039557 23.1952 0.0238273C23.2331 0.00809758 23.2738 1.59759e-06 23.3149 1.59759e-06H32.17C32.2111 -0.000129994 32.2519 0.00786888 32.29 0.0235397C32.3281 0.0392105 32.3628 0.062245 32.3919 0.0913229C32.4211 0.120401 32.4442 0.15495 32.46 0.19299C32.4758 0.23103 32.4839 0.271814 32.4839 0.313002V22.176C32.4839 22.2171 32.4759 22.2578 32.4601 22.2958C32.4444 22.3338 32.4213 22.3683 32.3923 22.3973C32.3632 22.4264 32.3287 22.4494 32.2907 22.4652C32.2528 22.4809 32.2121 22.489 32.171 22.489" fill="#ebff08"></path>
    <path d="M20.668 22.489H11.814C11.731 22.489 11.6514 22.456 11.5927 22.3973C11.534 22.3386 11.501 22.259 11.501 22.176V4.35402C11.501 4.271 11.534 4.19139 11.5927 4.13269C11.6514 4.07399 11.731 4.04102 11.814 4.04102H20.669C20.752 4.04102 20.8316 4.07399 20.8903 4.13269C20.949 4.19139 20.982 4.271 20.982 4.35402V22.176C20.982 22.259 20.949 22.3386 20.8903 22.3973C20.8316 22.456 20.751 22.489 20.668 22.489Z" fill="#ebff08"></path>
    <path d="M106.117 4.04297L99.7051 4.10097C99.6227 4.10176 99.544 4.13512 99.4861 4.19376C99.4282 4.2524 99.3959 4.33157 99.3961 4.41397V7.77097C99.3961 7.85398 99.4291 7.93359 99.4878 7.99229C99.5465 8.05099 99.6261 8.08397 99.7091 8.08397H106.082C108.982 8.18397 109.882 8.94897 109.882 11.031V11.393C107.745 11.284 106.225 11.284 105.391 11.284C99.8911 11.284 97.3911 13.058 97.3911 16.897C97.3911 20.88 99.7441 22.797 104.379 22.797C106.697 22.797 108.507 22.255 109.666 20.806H109.883V22.16C109.883 22.201 109.891 22.2417 109.907 22.2797C109.922 22.3176 109.945 22.3522 109.974 22.3812C110.003 22.4103 110.038 22.4334 110.075 22.4491C110.113 22.4649 110.154 22.473 110.195 22.473H114.349C114.39 22.473 114.431 22.4649 114.469 22.4491C114.507 22.4334 114.541 22.4104 114.57 22.3813C114.599 22.3522 114.623 22.3177 114.638 22.2798C114.654 22.2418 114.662 22.2011 114.662 22.16V12.189C114.662 6.38197 112.432 4.06097 106.117 4.04297ZM109.882 15.702C109.882 17.875 108.65 18.925 105.21 18.925C103.146 18.925 102.132 18.273 102.132 16.788C102.132 15.303 103.219 14.579 105.644 14.579C106.478 14.579 108.107 14.651 109.881 14.724L109.882 15.702Z" fill="white"></path>
    <path d="M125.048 11.2838C122.984 10.9938 121.427 10.7038 121.427 9.43678C121.427 8.45578 122.227 8.02178 125.127 7.99378H130.494C130.577 7.99378 130.657 7.96081 130.715 7.90211C130.774 7.84341 130.807 7.76379 130.807 7.68078V4.41778C130.807 4.33529 130.775 4.25612 130.716 4.19751C130.658 4.1389 130.58 4.10557 130.497 4.10478L124.526 4.05078C119.28 4.15078 116.683 5.93078 116.683 9.65078C116.683 14.6838 121.644 15.1188 124.469 15.5888C127.003 15.9888 128.126 16.2048 128.126 17.3628C128.126 18.3768 126.786 18.8108 123.781 18.8108C121.672 18.8071 119.566 18.644 117.481 18.3228C117.437 18.3159 117.392 18.3186 117.348 18.3307C117.305 18.3428 117.265 18.3641 117.231 18.393C117.196 18.4219 117.169 18.4578 117.149 18.4983C117.13 18.5388 117.12 18.5829 117.119 18.6278V21.7768C117.12 21.8497 117.146 21.92 117.193 21.9762C117.239 22.0324 117.304 22.071 117.375 22.0858C119.576 22.5632 121.823 22.8002 124.075 22.7928C129.797 22.7928 132.875 21.0188 132.875 16.9998C132.875 12.4738 128.529 11.7498 125.053 11.2788" fill="white"></path>
    <path d="M139.321 0.00010226C139.404 0.00010226 139.483 0.033079 139.542 0.0917778C139.601 0.150477 139.634 0.230089 139.634 0.313102V5.8871H139.888C140.598 5.24802 141.428 4.75579 142.329 4.43879C143.23 4.1218 144.185 3.9863 145.139 4.0401C149.665 4.0401 151.91 6.4661 151.91 11.7901V22.1581C151.91 22.2411 151.877 22.3207 151.818 22.3794C151.759 22.4381 151.68 22.4711 151.597 22.4711H147.515C147.432 22.4711 147.352 22.4381 147.293 22.3794C147.235 22.3207 147.202 22.2411 147.202 22.1581V11.9341C147.21 10.9213 146.818 9.94641 146.111 9.22106C145.404 8.4957 144.439 8.07851 143.427 8.0601C140.689 8.0511 139.627 9.2451 139.627 11.9351V22.1581C139.627 22.2411 139.594 22.3207 139.535 22.3794C139.476 22.4381 139.397 22.4711 139.314 22.4711H135.195C135.112 22.4711 135.032 22.4381 134.974 22.3794C134.915 22.3207 134.882 22.2411 134.882 22.1581V0.313102C134.882 0.271317 134.89 0.229951 134.906 0.191445C134.923 0.152939 134.946 0.118072 134.976 0.0889007C135.006 0.0597289 135.042 0.0368428 135.081 0.021592C135.12 0.00634111 135.161 -0.000965746 135.203 0.00010226H139.321Z" fill="white"></path>
    <path d="M88.7359 8.13138C90.1359 8.10738 93.4738 8.12038 94.5078 8.13138C94.5489 8.13165 94.5896 8.12371 94.6275 8.10804C94.6654 8.09237 94.6998 8.06928 94.7287 8.04012C94.7576 8.01096 94.7804 7.97632 94.7957 7.93824C94.811 7.90016 94.8185 7.85941 94.8179 7.81838V4.41037C94.8181 4.32831 94.7861 4.24945 94.7286 4.19086C94.6711 4.13228 94.5929 4.09869 94.5109 4.09738C93.4109 4.08038 89.6748 4.02638 88.1418 4.07938C82.7078 4.26538 80.0898 7.24738 80.0898 13.2034V13.6384C80.0898 20.0114 83.0949 22.7994 89.3239 22.7994C91.2808 22.7695 93.2274 22.51 95.1239 22.0264C95.1933 22.0097 95.2552 21.9704 95.2997 21.9146C95.3443 21.8588 95.369 21.7898 95.3699 21.7184V18.4744C95.3703 18.4284 95.3605 18.3828 95.3411 18.3411C95.3217 18.2994 95.2933 18.2625 95.2578 18.2332C95.2224 18.2038 95.1808 18.1828 95.1362 18.1716C95.0915 18.1604 95.045 18.1593 94.9998 18.1684C93.2831 18.5098 91.542 18.7144 89.7928 18.7804C86.2808 18.7804 84.8318 17.4044 84.8318 13.4934V13.3494C84.8318 9.86738 85.9899 8.17838 88.7319 8.13238" fill="white"></path>
    <path d="M67.713 4.04C68.6906 3.97088 69.672 4.10578 70.5947 4.43614C71.5174 4.76649 72.3614 5.28509 73.073 5.959H73.327V0.313C73.327 0.23016 73.3598 0.150699 73.4183 0.0920284C73.4768 0.0333582 73.5561 0.000264664 73.639 0L77.756 0C77.839 0 77.9186 0.0329767 77.9773 0.0916756C78.036 0.150374 78.069 0.229987 78.069 0.313V22.159C78.069 22.242 78.036 22.3216 77.9773 22.3803C77.9186 22.439 77.839 22.472 77.756 22.472H73.639C73.556 22.472 73.4764 22.439 73.4177 22.3803C73.359 22.3216 73.326 22.242 73.326 22.159V20.879H73.072C72.3603 21.5528 71.5163 22.0713 70.5936 22.4017C69.6709 22.732 68.6896 22.867 67.712 22.798C62.498 22.798 59.855 20.119 59.855 13.637V13.2C59.855 6.718 62.498 4.038 67.712 4.038M69.508 18.778C72.586 18.778 73.817 17.366 73.817 13.491V13.347C73.817 9.472 72.586 8.06 69.508 8.06C66.394 8.06 65.054 9.472 65.054 13.347V13.491C65.054 17.366 66.394 18.778 69.508 18.778Z" fill="white"></path>
    <path d="M49.2719 4.04297L42.8599 4.10097C42.7775 4.10176 42.6987 4.13512 42.6408 4.19376C42.5829 4.2524 42.5506 4.33157 42.5509 4.41397V7.77097C42.5509 7.85398 42.5838 7.93359 42.6425 7.99229C42.7012 8.05099 42.7809 8.08397 42.8639 8.08397H49.2369C52.1369 8.18397 53.0369 8.94897 53.0369 11.031V11.393C50.9009 11.284 49.3799 11.284 48.5469 11.284C43.0469 11.284 40.5469 13.058 40.5469 16.897C40.5469 20.88 42.8999 22.797 47.5349 22.797C49.8529 22.797 51.6629 22.255 52.8219 20.806H53.0389V22.16C53.0389 22.2011 53.047 22.2418 53.0627 22.2798C53.0784 22.3177 53.1015 22.3522 53.1306 22.3813C53.1596 22.4104 53.1941 22.4334 53.2321 22.4491C53.2701 22.4649 53.3108 22.473 53.3519 22.473H57.5059C57.547 22.473 57.5877 22.4649 57.6257 22.4491C57.6636 22.4334 57.6981 22.4104 57.7272 22.3813C57.7563 22.3522 57.7793 22.3177 57.7951 22.2798C57.8108 22.2418 57.8189 22.2011 57.8189 22.16V12.189C57.8189 6.38197 55.5889 4.06097 49.2739 4.04297M53.0389 15.702C53.0389 17.875 51.8069 18.925 48.3669 18.925C46.3029 18.925 45.2889 18.273 45.2889 16.788C45.2889 15.303 46.3759 14.579 48.8009 14.579C49.6349 14.579 51.2639 14.651 53.0379 14.724L53.0389 15.702Z" fill="white"></path>
    </svg>